<?xml version="1.0" standalone="no"?><!DOCTYPE svg PUBLIC "-//W3C//DTD SVG 1.1//EN" "http://www.w3.org/Graphics/SVG/1.1/DTD/svg11.dtd"><svg class="icon" height="512" viewBox="0 0 1024 1024" version="1.1" xmlns="http://www.w3.org/2000/svg"><path d="M954.238281 256.5625c-9.726563-16.835938-31.25-22.617188-48.105469-12.890625l-101.367188 58.535156 0-101.269531c0-11.660156-9.453125-21.132813-21.132813-21.132813-11.660156 0-21.132813 9.453125-21.132813 21.132813l0 125.664063-214.648438 123.925781 0-247.851563 108.828125-62.832031c10.097656-5.839844 13.574219-18.75 7.734375-28.867188-5.839844-10.097656-18.75-13.574219-28.867188-7.734375L547.851563 153.867188 547.851563 36.816406c0-19.453125-15.761719-35.214844-35.214844-35.214844s-35.214844 15.761719-35.214844 35.214844l0 117.050781-87.695313-50.644531c-10.097656-5.839844-23.027344-2.363281-28.867188 7.734375-5.839844 10.097656-2.363281 23.027344 7.734375 28.867188l108.828125 62.832031 0 247.851563-214.648438-123.925781 0-125.664063c0-11.660156-9.453125-21.132813-21.132813-21.132813s-21.132813 9.453125-21.132813 21.132813l0 101.269531-101.367188-58.535156c-16.835938-9.726563-38.378906-3.945313-48.105469 12.890625-9.726563 16.835938-3.945313 38.378906 12.890625 48.105469l101.367188 58.535156-87.695313 50.644531c-10.097656 5.839844-13.574219 18.75-7.734375 28.867188 3.90625 6.777344 11.015625 10.566406 18.320313 10.566406 3.574219 0 7.207031-0.917969 10.546875-2.832031l108.828125-62.832031 214.648438 123.925781-214.648438 123.925781L118.75 572.597656c-10.097656-5.839844-23.027344-2.363281-28.867188 7.734375-5.839844 10.097656-2.363281 23.027344 7.734375 28.867188l87.714844 50.644531-101.367188 58.535156c-16.835938 9.726563-22.617188 31.25-12.890625 48.105469 6.523438 11.289063 18.359375 17.617188 30.527344 17.617188 5.976563 0 12.03125-1.523438 17.578125-4.726563l101.367188-58.535156L220.546875 822.070313c0 11.660156 9.453125 21.132813 21.132813 21.132813s21.132813-9.453125 21.132813-21.132813l0-125.664063 214.648438-123.925781 0 247.851563-108.828125 62.832031c-10.097656 5.839844-13.574219 18.75-7.734375 28.867188 3.90625 6.777344 11.015625 10.566406 18.320313 10.566406 3.574219 0 7.207031-0.917969 10.546875-2.832031l87.695313-50.644531 0 117.050781c0 19.453125 15.761719 35.214844 35.214844 35.214844 19.453125 0 35.214844-15.761719 35.214844-35.214844l0-117.050781 87.714844 50.644531c3.320313 1.914063 6.953125 2.832031 10.546875 2.832031 7.304688 0 14.394531-3.789062 18.320313-10.566406 5.839844-10.097656 2.363281-23.027344-7.734375-28.867188L547.851563 820.332031l0-247.851563 214.648438 123.925781L762.5 822.070313c0 11.660156 9.453125 21.132813 21.132813 21.132813 11.660156 0 21.132813-9.453125 21.132813-21.132813l0-101.269531 101.367188 58.535156c5.546875 3.203125 11.601563 4.726563 17.578125 4.726563 12.167969 0 24.003906-6.308594 30.527344-17.617188 9.726563-16.835938 3.945313-38.378906-12.890625-48.105469l-101.386719-58.535156 87.714844-50.644531c10.097656-5.839844 13.574219-18.75 7.734375-28.867188-5.839844-10.097656-18.75-13.574219-28.867188-7.734375l-108.828125 62.832031-214.648438-123.925781 214.648438-123.925781 108.828125 62.832031c3.320313 1.914063 6.953125 2.832031 10.546875 2.832031 7.304688 0 14.394531-3.789062 18.320313-10.566406 5.839844-10.097656 2.363281-23.027344-7.734375-28.867188l-87.714844-50.644531 101.367188-58.535156C958.183594 294.921875 963.945312 273.398438 954.238281 256.5625z" fill="#1296db" /></svg>